<svg version="1.1" id="Layer_1" xmlns="http://www.w3.org/2000/svg" xmlns:xlink="http://www.w3.org/1999/xlink" x="0px" y="0px"
	 width="100%" viewBox="0 0 256 256" enable-background="new 0 0 256 256" xml:space="preserve">
<path fill="#FFFCFC" opacity="1.000000" stroke="none" 
	d="
M151.000000,257.000000 
	C100.666672,257.000000 50.833340,257.000000 1.000007,257.000000 
	C1.000005,171.666672 1.000005,86.333351 1.000002,1.000018 
	C86.333321,1.000012 171.666641,1.000012 257.000000,1.000006 
	C257.000000,86.333313 257.000000,171.666626 257.000000,256.999969 
	C221.833328,257.000000 186.666672,257.000000 151.000000,257.000000 
M12.033282,169.500000 
	C12.033820,177.995041 12.179399,186.493896 11.956351,194.983063 
	C11.878115,197.960739 12.952636,199.329681 15.555765,200.549362 
	C49.420563,216.416718 83.231140,232.399796 117.061249,248.341248 
	C118.454842,248.997925 119.906174,249.532059 121.478935,250.184860 
	C121.648033,249.135666 121.747086,248.807648 121.747231,248.479599 
	C121.766289,207.003799 121.820992,165.527786 121.634674,124.052879 
	C121.627144,122.377922 119.705200,119.941879 118.057693,119.157555 
	C84.742012,103.297150 51.337036,87.624268 17.944347,71.925743 
	C16.205212,71.108139 14.416080,70.396881 12.033284,69.370331 
	C12.033284,102.954300 12.033284,135.727158 12.033282,169.500000 
M210.291168,215.770279 
	C220.811157,210.811462 231.263367,205.699860 241.891693,200.985260 
	C245.156570,199.537003 246.125717,197.754654 246.114716,194.274078 
	C245.988831,154.478989 246.035828,114.683342 246.036697,74.887840 
	C246.036728,73.294411 246.036697,71.700989 246.036697,69.429817 
	C243.719528,70.444580 242.074265,71.120148 240.466614,71.875793 
	C207.237167,87.494705 174.041107,103.185402 140.741592,118.653397 
	C137.357788,120.225220 136.164062,121.935631 136.177155,125.660645 
	C136.316437,165.289154 136.263779,204.918320 136.263901,244.547318 
	C136.263901,246.294891 136.263901,248.042465 136.263901,250.651382 
	C161.301712,238.835678 185.447601,227.440872 210.291168,215.770279 
M216.490280,66.979050 
	C222.770233,63.998661 229.050171,61.018272 235.863602,57.784702 
	C234.489578,57.013401 233.707657,56.507023 232.872055,56.115147 
	C199.171829,40.310452 165.486298,24.473789 131.705688,8.842648 
	C129.976913,8.042698 127.156860,8.423459 125.301933,9.263599 
	C112.588425,15.021840 99.999367,21.054689 87.365730,26.989513 
	C65.864410,37.090054 44.359783,47.183548 22.743053,57.333294 
	C23.262074,57.876320 23.536337,58.372498 23.952105,58.568489 
	C58.225788,74.724808 92.498878,90.882645 126.836891,106.901299 
	C128.205963,107.539978 130.439240,107.354912 131.866150,106.688805 
	C159.873001,93.614746 187.819946,80.412292 216.490280,66.979050 
z"/>
<path fill="#CA0304" opacity="1.000000" stroke="none" 
	d="
M12.033283,169.000000 
	C12.033284,135.727158 12.033284,102.954300 12.033284,69.370331 
	C14.416080,70.396881 16.205212,71.108139 17.944347,71.925743 
	C51.337036,87.624268 84.742012,103.297150 118.057693,119.157555 
	C119.705200,119.941879 121.627144,122.377922 121.634674,124.052879 
	C121.820992,165.527786 121.766289,207.003799 121.747231,248.479599 
	C121.747086,248.807648 121.648033,249.135666 121.478935,250.184860 
	C119.906174,249.532059 118.454842,248.997925 117.061249,248.341248 
	C83.231140,232.399796 49.420563,216.416718 15.555765,200.549362 
	C12.952636,199.329681 11.878115,197.960739 11.956351,194.983063 
	C12.179399,186.493896 12.033820,177.995041 12.033283,169.000000 
M62.329803,138.172333 
	C58.516991,136.473068 54.704178,134.773788 50.414021,132.861786 
	C50.414021,145.397781 50.361240,157.022568 50.491146,168.645325 
	C50.504978,169.882965 51.263763,171.766678 52.223675,172.238586 
	C62.297070,177.190918 72.481956,181.916473 83.258133,186.998123 
	C83.258133,174.255264 83.335747,162.311310 83.138527,150.371872 
	C83.118721,149.172989 81.682030,147.515747 80.478806,146.900085 
	C74.727303,143.957230 68.829506,141.300278 62.329803,138.172333 
z"/>
<path fill="#CA0304" opacity="1.000000" stroke="none" 
	d="
M209.942337,215.908173 
	C185.447601,227.440872 161.301712,238.835678 136.263901,250.651382 
	C136.263901,248.042465 136.263901,246.294891 136.263901,244.547318 
	C136.263779,204.918320 136.316437,165.289154 136.177155,125.660645 
	C136.164062,121.935631 137.357788,120.225220 140.741592,118.653397 
	C174.041107,103.185402 207.237167,87.494705 240.466614,71.875793 
	C242.074265,71.120148 243.719528,70.444580 246.036697,69.429817 
	C246.036697,71.700989 246.036728,73.294411 246.036697,74.887840 
	C246.035828,114.683342 245.988831,154.478989 246.114716,194.274078 
	C246.125717,197.754654 245.156570,199.537003 241.891693,200.985260 
	C231.263367,205.699860 220.811157,210.811462 209.942337,215.908173 
M207.708145,151.500854 
	C207.708145,145.454254 207.708145,139.407639 207.708145,132.700699 
	C196.860825,137.787354 186.806335,142.461517 176.812042,147.261078 
	C175.952438,147.673904 174.938248,148.912384 174.929581,149.776718 
	C174.806976,161.983215 174.846191,174.191345 174.846191,187.050873 
	C185.642868,181.970566 195.714767,177.326080 205.655869,172.416763 
	C206.728622,171.886993 207.558762,169.842773 207.617218,168.463577 
	C207.842438,163.150681 207.708282,157.822540 207.708145,151.500854 
z"/>
<path fill="#CA0304" opacity="1.000000" stroke="none" 
	d="
M216.134689,67.107544 
	C187.819946,80.412292 159.873001,93.614746 131.866150,106.688805 
	C130.439240,107.354912 128.205963,107.539978 126.836891,106.901299 
	C92.498878,90.882645 58.225788,74.724808 23.952105,58.568489 
	C23.536337,58.372498 23.262074,57.876320 22.743053,57.333294 
	C44.359783,47.183548 65.864410,37.090054 87.365730,26.989513 
	C99.999367,21.054689 112.588425,15.021840 125.301933,9.263599 
	C127.156860,8.423459 129.976913,8.042698 131.705688,8.842648 
	C165.486298,24.473789 199.171829,40.310452 232.872055,56.115147 
	C233.707657,56.507023 234.489578,57.013401 235.863602,57.784702 
	C229.050171,61.018272 222.770233,63.998661 216.134689,67.107544 
M149.366623,52.122784 
	C143.651062,49.446438 137.958679,46.718475 132.202179,44.133289 
	C130.908203,43.552170 129.083130,42.787075 128.023071,43.263901 
	C117.892738,47.820591 107.874397,52.626232 97.062416,57.719116 
	C107.720169,62.754646 117.454727,67.376778 127.222580,71.927437 
	C128.037888,72.307274 129.258408,72.600517 129.985901,72.267746 
	C140.207962,67.592033 150.377060,62.800541 161.187881,57.742989 
	C156.926636,55.732201 153.477417,54.104588 149.366623,52.122784 
z"/>
<path fill="#FEF8F7" opacity="1.000000" stroke="none" 
	d="
M62.656761,138.357010 
	C68.829506,141.300278 74.727303,143.957230 80.478806,146.900085 
	C81.682030,147.515747 83.118721,149.172989 83.138527,150.371872 
	C83.335747,162.311310 83.258133,174.255264 83.258133,186.998123 
	C72.481956,181.916473 62.297070,177.190918 52.223675,172.238586 
	C51.263763,171.766678 50.504978,169.882965 50.491146,168.645325 
	C50.361240,157.022568 50.414021,145.397781 50.414021,132.861786 
	C54.704178,134.773788 58.516991,136.473068 62.656761,138.357010 
z"/>
<path fill="#FEF8F8" opacity="1.000000" stroke="none" 
	d="
M207.708130,152.000473 
	C207.708282,157.822540 207.842438,163.150681 207.617218,168.463577 
	C207.558762,169.842773 206.728622,171.886993 205.655869,172.416763 
	C195.714767,177.326080 185.642868,181.970566 174.846191,187.050873 
	C174.846191,174.191345 174.806976,161.983215 174.929581,149.776718 
	C174.938248,148.912384 175.952438,147.673904 176.812042,147.261078 
	C186.806335,142.461517 196.860825,137.787354 207.708145,132.700699 
	C207.708145,139.407639 207.708145,145.454254 207.708130,152.000473 
z"/>
<path fill="#FEF8F8" opacity="1.000000" stroke="none" 
	d="
M149.697418,52.299881 
	C153.477417,54.104588 156.926636,55.732201 161.187881,57.742989 
	C150.377060,62.800541 140.207962,67.592033 129.985901,72.267746 
	C129.258408,72.600517 128.037888,72.307274 127.222580,71.927437 
	C117.454727,67.376778 107.720169,62.754646 97.062416,57.719116 
	C107.874397,52.626232 117.892738,47.820591 128.023071,43.263901 
	C129.083130,42.787075 130.908203,43.552170 132.202179,44.133289 
	C137.958679,46.718475 143.651062,49.446438 149.697418,52.299881 
z"/>
</svg>